<svg enable-background="new 0 0 512 512" viewBox="0 0 512 512" xmlns="http://www.w3.org/2000/svg"><g><path d="m306.096 139.589-42.362 42.362c63.201 7.958 89.188 85.519 44.713 129.993l-128.574 128.575c-29.882 29.882-78.514 29.882-108.396 0-29.954-29.975-29.963-78.432 0-108.396l33.83-33.84c-6.212-20.407-8.183-45.636-4.167-70.2l-63.246 63.246c-50.505 50.505-50.544 132.268-.01 182.782 50.489 50.51 132.279 50.524 182.782 0 158.123-158.101 113.829-113.816 126.552-126.591 62.463-64.858 40.731-172.051-41.122-207.931z"/><path d="m474.205 220.573c50.398-50.388 50.388-132.384 0-182.782-50.391-50.371-132.373-50.399-182.772 0-129.418 129.418-126.551 126.6-126.551 126.6-63.235 65.675-39.886 172.39 41.102 207.922h.01l38.771-38.771h-.01c-63.214-8.003-89.056-85.397-44.88-129.816 0 0 73.311-73.307 128.741-128.752 29.908-29.908 78.382-30.013 108.396 0 29.892 29.892 29.892 78.514 0 108.405l-30.219 30.219c7.161 26.227 7.858 47.72 4.187 70.2z"/><path d="m16.339 189.371c.463 0 .933-.021 1.403-.065l29.284-2.717c8.249-.765 14.315-8.072 13.55-16.321s-8.071-14.321-16.322-13.55l-29.284 2.717c-8.249.765-14.315 8.072-13.55 16.321.723 7.778 7.26 13.615 14.919 13.615z"/><path d="m170.278 60.565c.471.044.939.065 1.403.065 7.659 0 14.197-5.838 14.918-13.615l2.717-29.283c.765-8.249-5.301-15.557-13.55-16.321-8.251-.767-15.556 5.302-16.322 13.55l-2.717 29.283c-.764 8.249 5.302 15.557 13.551 16.321z"/><path d="m74.046 92.558c5.858 5.858 15.355 5.858 21.213 0 5.858-5.857 5.858-15.355 0-21.213l-18.785-18.785c-5.857-5.857-15.355-5.857-21.213 0s-5.858 15.355 0 21.213z"/><path d="m494.257 322.694-29.283 2.717c-8.249.765-14.315 8.072-13.55 16.321.766 8.261 8.089 14.318 16.321 13.55l29.283-2.717c8.249-.765 14.315-8.072 13.55-16.321-.765-8.25-8.084-14.321-16.321-13.55z"/><path d="m341.722 451.435c-8.259-.77-15.556 5.302-16.321 13.55l-2.717 29.283c-.814 8.77 6.077 16.387 14.953 16.387 7.659 0 14.196-5.838 14.918-13.615l2.717-29.283c.765-8.25-5.301-15.558-13.55-16.322z"/><path d="m437.954 419.442c-5.857-5.857-15.355-5.857-21.213 0s-5.858 15.355 0 21.213l18.785 18.785c5.858 5.858 15.355 5.858 21.213 0 5.858-5.857 5.858-15.355 0-21.213z"/></g></svg>
